<mxfile host="app.diagrams.net" modified="2023-12-19T03:30:26.848Z" agent="Mozilla/5.0 (X11; Ubuntu; Linux x86_64; rv:109.0) Gecko/20100101 Firefox/116.0" version="22.1.11" etag="cPrAGMI4qpojuJUGFFQI" type="github">
  <diagram name="第 1 页" id="oOBT4PS194gGL1FEWxKf">
    <mxGraphModel>
      <root>
        <mxCell id="0" />
        <mxCell id="1" parent="0" />
      </root>
    </mxGraphModel>
  </diagram>
</mxfile>
